<?xml version="1.0" encoding="utf-8"?>
<!-- Generator: Adobe Illustrator 16.0.0, SVG Export Plug-In . SVG Version: 6.00 Build 0)  -->
<!DOCTYPE svg PUBLIC "-//W3C//DTD SVG 1.1//EN" "http://www.w3.org/Graphics/SVG/1.1/DTD/svg11.dtd">
<svg version="1.1" id="圖層_1" xmlns="http://www.w3.org/2000/svg" xmlns:xlink="http://www.w3.org/1999/xlink" x="0px" y="0px"
	 width="512px" height="512px" viewBox="0 0 512 512" enable-background="new 0 0 512 512" xml:space="preserve">
<path d="M297.277,508.668c-2.133,0.348-4.273,0.668-6.422,0.961C293.004,509.336,295.145,509.016,297.277,508.668z"/>
<path d="M302.398,507.793c-1.02,0.188-2.039,0.359-3.059,0.535C300.359,508.153,301.379,507.981,302.398,507.793z"/>
<path d="M285.137,510.34c-2.496,0.281-5.008,0.531-7.527,0.742C280.129,510.871,282.641,510.621,285.137,510.34z"/>
<path d="M290.055,509.739c-1.199,0.16-2.406,0.309-3.609,0.449C287.648,510.047,288.855,509.899,290.055,509.739z"/>
<path d="M309.367,506.41c-0.898,0.191-1.801,0.383-2.703,0.566C307.566,506.793,308.469,506.602,309.367,506.41z"/>
<path d="M326.664,502.114c-0.727,0.207-1.453,0.402-2.18,0.605C325.211,502.516,325.938,502.321,326.664,502.114z"/>
<path d="M321.434,503.543c-0.789,0.207-1.582,0.418-2.375,0.617C319.852,503.961,320.645,503.754,321.434,503.543z"/>
<path d="M314.59,505.254c-0.836,0.195-1.68,0.379-2.523,0.566C312.91,505.633,313.754,505.449,314.59,505.254z"/>
<path d="M277.527,511.09c-1.348,0.113-2.695,0.215-4.047,0.305C274.832,511.305,276.18,511.203,277.527,511.09z"/>
<path fill="#828282" d="M512,256C512,114.637,397.363,0,256,0S0,114.637,0,256s114.637,256,256,256c1.504,0,3-0.031,4.5-0.059
	V312.656h-55v-64.098h55v-47.168c0-54.703,33.395-84.477,82.191-84.477c23.367,0,43.453,1.742,49.309,2.52v57.172h-33.648
	c-26.547,0-31.688,12.617-31.688,31.129v40.824h63.477l-8.273,64.098h-55.203V502.11C433.668,471.434,512,372.852,512,256z"/>
<path d="M272.914,511.43c-2.664,0.172-5.34,0.309-8.023,0.398C267.574,511.739,270.25,511.602,272.914,511.43z"/>
<path d="M264.754,511.836c-1.414,0.047-2.832,0.082-4.25,0.105C261.922,511.918,263.34,511.883,264.754,511.836z"/>
</svg>
