<?xml version="1.0" encoding="utf-8"?>
<!-- Generator: Adobe Illustrator 16.0.0, SVG Export Plug-In . SVG Version: 6.00 Build 0)  -->
<!DOCTYPE svg PUBLIC "-//W3C//DTD SVG 1.1//EN" "http://www.w3.org/Graphics/SVG/1.1/DTD/svg11.dtd">
<svg version="1.1" id="圖層_1" xmlns="http://www.w3.org/2000/svg" xmlns:xlink="http://www.w3.org/1999/xlink" x="0px" y="0px"
	 width="512px" height="512px" viewBox="0 0 512 512" enable-background="new 0 0 512 512" xml:space="preserve">
<path fill="#828282" d="M256,10.666c-141.12,0-256,93.824-256,209.131C0,323.072,91.093,409.6,214.08,426.048
	c8.341,1.771,19.69,5.546,22.571,12.672c2.56,6.464,1.685,16.448,0.811,23.189l-3.499,21.888c-0.96,6.464-5.12,25.451,22.378,13.846
	c27.542-11.563,147.542-87.553,201.301-149.739C494.421,307.37,512,265.834,512,219.797C512,104.49,397.12,10.666,256,10.666z
	 M155.797,288.363h-50.901c-7.36,0-13.44-6.122-13.44-13.504V172.438c0-7.403,6.08-13.525,13.44-13.525
	c7.424,0,13.44,6.122,13.44,13.525v88.896h37.461c7.424,0,13.418,6.08,13.418,13.525C169.216,282.24,163.2,288.363,155.797,288.363z
	 M208.405,274.859c0,7.381-6.016,13.504-13.461,13.504c-7.36,0-13.376-6.122-13.376-13.504V172.438
	c0-7.403,6.016-13.525,13.44-13.525c7.381,0,13.397,6.122,13.397,13.525V274.859z M330.88,274.859c0,5.803-3.712,10.944-9.216,12.8
	c-1.365,0.448-2.838,0.661-4.246,0.661c-4.5,0-8.341-1.94-10.879-5.376l-52.118-71.21v63.104c0,7.382-5.952,13.504-13.461,13.504
	c-7.381,0-13.354-6.122-13.354-13.504V172.438c0-5.803,3.69-10.944,9.173-12.779c1.28-0.49,2.901-0.704,4.139-0.704
	c4.16,0,8,2.24,10.56,5.462L304,235.904v-63.466c0-7.403,6.016-13.525,13.439-13.525c7.36,0,13.44,6.122,13.44,13.525V274.859z
	 M413.12,210.112c7.445,0,13.439,6.123,13.439,13.547c0,7.403-5.994,13.525-13.439,13.525h-37.44v24.149h37.44
	c7.445,0,13.439,6.08,13.439,13.525c0,7.381-5.994,13.504-13.439,13.504h-50.901c-7.359,0-13.376-6.122-13.376-13.504V172.438
	c0-7.403,6.016-13.525,13.44-13.525h50.9c7.382,0,13.376,6.122,13.376,13.525c0,7.487-5.994,13.525-13.439,13.525h-37.44v24.148
	H413.12z"/>
</svg>
